<mxfile host="app.diagrams.net" modified="2022-05-17T13:00:29.425Z" agent="5.0 (Macintosh; Intel Mac OS X 10_15_7) AppleWebKit/605.1.15 (KHTML, like Gecko) Version/15.4 Safari/605.1.15" etag="0n_Tgn3mtRQjF603Cve9" version="18.0.6" type="github">
  <diagram id="ZDxlIlINszNL1pdcRN4t" name="Page-1">
    <mxGraphModel dx="946" dy="560" grid="1" gridSize="10" guides="1" tooltips="1" connect="1" arrows="1" fold="1" page="1" pageScale="1" pageWidth="827" pageHeight="1169" math="0" shadow="0">
      <root>
        <mxCell id="0" />
        <mxCell id="1" parent="0" />
        <mxCell id="tl_DVhKCwuZq20K7D5vW-9" value="User" style="swimlane;fontStyle=0;childLayout=stackLayout;horizontal=1;startSize=26;fillColor=none;horizontalStack=0;resizeParent=1;resizeParentMax=0;resizeLast=0;collapsible=1;marginBottom=0;" parent="1" vertex="1">
          <mxGeometry x="170" y="40" width="140" height="182" as="geometry" />
        </mxCell>
        <mxCell id="tl_DVhKCwuZq20K7D5vW-11" value="name" style="text;strokeColor=none;fillColor=none;align=left;verticalAlign=top;spacingLeft=4;spacingRight=4;overflow=hidden;rotatable=0;points=[[0,0.5],[1,0.5]];portConstraint=eastwest;" parent="tl_DVhKCwuZq20K7D5vW-9" vertex="1">
          <mxGeometry y="26" width="140" height="26" as="geometry" />
        </mxCell>
        <mxCell id="tl_DVhKCwuZq20K7D5vW-12" value="email" style="text;strokeColor=none;fillColor=none;align=left;verticalAlign=top;spacingLeft=4;spacingRight=4;overflow=hidden;rotatable=0;points=[[0,0.5],[1,0.5]];portConstraint=eastwest;" parent="tl_DVhKCwuZq20K7D5vW-9" vertex="1">
          <mxGeometry y="52" width="140" height="26" as="geometry" />
        </mxCell>
        <mxCell id="tl_DVhKCwuZq20K7D5vW-46" value="birthDate" style="text;strokeColor=none;fillColor=none;align=left;verticalAlign=top;spacingLeft=4;spacingRight=4;overflow=hidden;rotatable=0;points=[[0,0.5],[1,0.5]];portConstraint=eastwest;" parent="tl_DVhKCwuZq20K7D5vW-9" vertex="1">
          <mxGeometry y="78" width="140" height="26" as="geometry" />
        </mxCell>
        <mxCell id="tl_DVhKCwuZq20K7D5vW-47" value="address" style="text;strokeColor=none;fillColor=none;align=left;verticalAlign=top;spacingLeft=4;spacingRight=4;overflow=hidden;rotatable=0;points=[[0,0.5],[1,0.5]];portConstraint=eastwest;" parent="tl_DVhKCwuZq20K7D5vW-9" vertex="1">
          <mxGeometry y="104" width="140" height="26" as="geometry" />
        </mxCell>
        <mxCell id="tl_DVhKCwuZq20K7D5vW-48" value="password" style="text;strokeColor=none;fillColor=none;align=left;verticalAlign=top;spacingLeft=4;spacingRight=4;overflow=hidden;rotatable=0;points=[[0,0.5],[1,0.5]];portConstraint=eastwest;" parent="tl_DVhKCwuZq20K7D5vW-9" vertex="1">
          <mxGeometry y="130" width="140" height="26" as="geometry" />
        </mxCell>
        <mxCell id="tl_DVhKCwuZq20K7D5vW-49" value="username" style="text;strokeColor=none;fillColor=none;align=left;verticalAlign=top;spacingLeft=4;spacingRight=4;overflow=hidden;rotatable=0;points=[[0,0.5],[1,0.5]];portConstraint=eastwest;" parent="tl_DVhKCwuZq20K7D5vW-9" vertex="1">
          <mxGeometry y="156" width="140" height="26" as="geometry" />
        </mxCell>
        <mxCell id="urGP4aQNx4Tb6P65iN4q-1" style="edgeStyle=orthogonalEdgeStyle;rounded=0;orthogonalLoop=1;jettySize=auto;html=1;exitX=0.5;exitY=0;exitDx=0;exitDy=0;entryX=0;entryY=0.5;entryDx=0;entryDy=0;endArrow=block;endFill=0;" edge="1" parent="1" source="tl_DVhKCwuZq20K7D5vW-37" target="tl_DVhKCwuZq20K7D5vW-49">
          <mxGeometry relative="1" as="geometry" />
        </mxCell>
        <mxCell id="tl_DVhKCwuZq20K7D5vW-37" value="Requester" style="swimlane;fontStyle=0;childLayout=stackLayout;horizontal=1;startSize=26;fillColor=none;horizontalStack=0;resizeParent=1;resizeParentMax=0;resizeLast=0;collapsible=1;marginBottom=0;" parent="1" vertex="1">
          <mxGeometry x="50" y="320" width="140" height="52" as="geometry" />
        </mxCell>
        <mxCell id="urGP4aQNx4Tb6P65iN4q-2" style="edgeStyle=orthogonalEdgeStyle;rounded=0;orthogonalLoop=1;jettySize=auto;html=1;exitX=0.5;exitY=0;exitDx=0;exitDy=0;entryX=1;entryY=0.5;entryDx=0;entryDy=0;endArrow=block;endFill=0;" edge="1" parent="1" source="tl_DVhKCwuZq20K7D5vW-41" target="tl_DVhKCwuZq20K7D5vW-49">
          <mxGeometry relative="1" as="geometry" />
        </mxCell>
        <mxCell id="tl_DVhKCwuZq20K7D5vW-41" value="Expert" style="swimlane;fontStyle=0;childLayout=stackLayout;horizontal=1;startSize=26;fillColor=none;horizontalStack=0;resizeParent=1;resizeParentMax=0;resizeLast=0;collapsible=1;marginBottom=0;" parent="1" vertex="1">
          <mxGeometry x="290" y="320" width="140" height="52" as="geometry" />
        </mxCell>
        <mxCell id="tl_DVhKCwuZq20K7D5vW-85" value="rating" style="text;strokeColor=none;fillColor=none;align=left;verticalAlign=top;spacingLeft=4;spacingRight=4;overflow=hidden;rotatable=0;points=[[0,0.5],[1,0.5]];portConstraint=eastwest;" parent="tl_DVhKCwuZq20K7D5vW-41" vertex="1">
          <mxGeometry y="26" width="140" height="26" as="geometry" />
        </mxCell>
        <mxCell id="tl_DVhKCwuZq20K7D5vW-52" value="Category" style="swimlane;fontStyle=0;childLayout=stackLayout;horizontal=1;startSize=26;fillColor=none;horizontalStack=0;resizeParent=1;resizeParentMax=0;resizeLast=0;collapsible=1;marginBottom=0;" parent="1" vertex="1">
          <mxGeometry x="530" y="320" width="140" height="78" as="geometry" />
        </mxCell>
        <mxCell id="tl_DVhKCwuZq20K7D5vW-53" value="name" style="text;strokeColor=none;fillColor=none;align=left;verticalAlign=top;spacingLeft=4;spacingRight=4;overflow=hidden;rotatable=0;points=[[0,0.5],[1,0.5]];portConstraint=eastwest;" parent="tl_DVhKCwuZq20K7D5vW-52" vertex="1">
          <mxGeometry y="26" width="140" height="26" as="geometry" />
        </mxCell>
        <mxCell id="tl_DVhKCwuZq20K7D5vW-54" value="description" style="text;strokeColor=none;fillColor=none;align=left;verticalAlign=top;spacingLeft=4;spacingRight=4;overflow=hidden;rotatable=0;points=[[0,0.5],[1,0.5]];portConstraint=eastwest;" parent="tl_DVhKCwuZq20K7D5vW-52" vertex="1">
          <mxGeometry y="52" width="140" height="26" as="geometry" />
        </mxCell>
        <mxCell id="tl_DVhKCwuZq20K7D5vW-56" style="edgeStyle=orthogonalEdgeStyle;rounded=0;orthogonalLoop=1;jettySize=auto;html=1;endArrow=none;endFill=0;" parent="1" target="tl_DVhKCwuZq20K7D5vW-53" edge="1">
          <mxGeometry relative="1" as="geometry">
            <mxPoint x="430" y="359" as="sourcePoint" />
          </mxGeometry>
        </mxCell>
        <mxCell id="tl_DVhKCwuZq20K7D5vW-57" value="1..*" style="edgeLabel;html=1;align=center;verticalAlign=middle;resizable=0;points=[];" parent="tl_DVhKCwuZq20K7D5vW-56" vertex="1" connectable="0">
          <mxGeometry x="0.34" y="-1" relative="1" as="geometry">
            <mxPoint x="19" y="-14" as="offset" />
          </mxGeometry>
        </mxCell>
        <mxCell id="tl_DVhKCwuZq20K7D5vW-58" value="*" style="edgeLabel;html=1;align=center;verticalAlign=middle;resizable=0;points=[];" parent="tl_DVhKCwuZq20K7D5vW-56" vertex="1" connectable="0">
          <mxGeometry x="-0.5659" y="-3" relative="1" as="geometry">
            <mxPoint x="-11" y="-15" as="offset" />
          </mxGeometry>
        </mxCell>
        <mxCell id="tl_DVhKCwuZq20K7D5vW-73" style="edgeStyle=orthogonalEdgeStyle;rounded=0;orthogonalLoop=1;jettySize=auto;html=1;endArrow=none;endFill=0;entryX=0.5;entryY=1;entryDx=0;entryDy=0;" parent="1" source="tl_DVhKCwuZq20K7D5vW-61" target="tl_DVhKCwuZq20K7D5vW-41" edge="1">
          <mxGeometry relative="1" as="geometry">
            <mxPoint x="343" y="370" as="targetPoint" />
          </mxGeometry>
        </mxCell>
        <mxCell id="tl_DVhKCwuZq20K7D5vW-78" value="0..1" style="edgeLabel;html=1;align=center;verticalAlign=middle;resizable=0;points=[];" parent="tl_DVhKCwuZq20K7D5vW-73" vertex="1" connectable="0">
          <mxGeometry x="0.3939" relative="1" as="geometry">
            <mxPoint x="20" y="-13" as="offset" />
          </mxGeometry>
        </mxCell>
        <mxCell id="tl_DVhKCwuZq20K7D5vW-79" value="*" style="edgeLabel;html=1;align=center;verticalAlign=middle;resizable=0;points=[];" parent="tl_DVhKCwuZq20K7D5vW-73" vertex="1" connectable="0">
          <mxGeometry x="-0.2121" relative="1" as="geometry">
            <mxPoint x="13" y="17" as="offset" />
          </mxGeometry>
        </mxCell>
        <mxCell id="tl_DVhKCwuZq20K7D5vW-61" value="Request" style="swimlane;fontStyle=0;childLayout=stackLayout;horizontal=1;startSize=26;fillColor=none;horizontalStack=0;resizeParent=1;resizeParentMax=0;resizeLast=0;collapsible=1;marginBottom=0;" parent="1" vertex="1">
          <mxGeometry x="290" y="460" width="140" height="130" as="geometry" />
        </mxCell>
        <mxCell id="tl_DVhKCwuZq20K7D5vW-62" value="isOpen" style="text;strokeColor=none;fillColor=none;align=left;verticalAlign=top;spacingLeft=4;spacingRight=4;overflow=hidden;rotatable=0;points=[[0,0.5],[1,0.5]];portConstraint=eastwest;" parent="tl_DVhKCwuZq20K7D5vW-61" vertex="1">
          <mxGeometry y="26" width="140" height="26" as="geometry" />
        </mxCell>
        <mxCell id="tl_DVhKCwuZq20K7D5vW-65" value="title" style="text;strokeColor=none;fillColor=none;align=left;verticalAlign=top;spacingLeft=4;spacingRight=4;overflow=hidden;rotatable=0;points=[[0,0.5],[1,0.5]];portConstraint=eastwest;" parent="tl_DVhKCwuZq20K7D5vW-61" vertex="1">
          <mxGeometry y="52" width="140" height="26" as="geometry" />
        </mxCell>
        <mxCell id="tl_DVhKCwuZq20K7D5vW-67" value="content" style="text;strokeColor=none;fillColor=none;align=left;verticalAlign=top;spacingLeft=4;spacingRight=4;overflow=hidden;rotatable=0;points=[[0,0.5],[1,0.5]];portConstraint=eastwest;" parent="tl_DVhKCwuZq20K7D5vW-61" vertex="1">
          <mxGeometry y="78" width="140" height="26" as="geometry" />
        </mxCell>
        <mxCell id="tl_DVhKCwuZq20K7D5vW-71" value="date" style="text;strokeColor=none;fillColor=none;align=left;verticalAlign=top;spacingLeft=4;spacingRight=4;overflow=hidden;rotatable=0;points=[[0,0.5],[1,0.5]];portConstraint=eastwest;" parent="tl_DVhKCwuZq20K7D5vW-61" vertex="1">
          <mxGeometry y="104" width="140" height="26" as="geometry" />
        </mxCell>
        <mxCell id="tl_DVhKCwuZq20K7D5vW-75" style="edgeStyle=orthogonalEdgeStyle;rounded=0;orthogonalLoop=1;jettySize=auto;html=1;entryX=1;entryY=0.5;entryDx=0;entryDy=0;endArrow=diamond;endFill=1;startArrow=none;startFill=0;" parent="1" source="tl_DVhKCwuZq20K7D5vW-68" target="tl_DVhKCwuZq20K7D5vW-67" edge="1">
          <mxGeometry relative="1" as="geometry" />
        </mxCell>
        <mxCell id="tl_DVhKCwuZq20K7D5vW-83" value="*" style="edgeLabel;html=1;align=center;verticalAlign=middle;resizable=0;points=[];" parent="tl_DVhKCwuZq20K7D5vW-75" vertex="1" connectable="0">
          <mxGeometry x="0.0545" y="-2" relative="1" as="geometry">
            <mxPoint x="38" y="-11" as="offset" />
          </mxGeometry>
        </mxCell>
        <mxCell id="tl_DVhKCwuZq20K7D5vW-84" value="1" style="edgeLabel;html=1;align=center;verticalAlign=middle;resizable=0;points=[];" parent="tl_DVhKCwuZq20K7D5vW-75" vertex="1" connectable="0">
          <mxGeometry x="0.4939" y="-1" relative="1" as="geometry">
            <mxPoint x="-9" y="-14" as="offset" />
          </mxGeometry>
        </mxCell>
        <mxCell id="tl_DVhKCwuZq20K7D5vW-68" value="Media" style="swimlane;fontStyle=0;childLayout=stackLayout;horizontal=1;startSize=26;fillColor=none;horizontalStack=0;resizeParent=1;resizeParentMax=0;resizeLast=0;collapsible=1;marginBottom=0;" parent="1" vertex="1">
          <mxGeometry x="530" y="499" width="140" height="104" as="geometry" />
        </mxCell>
        <mxCell id="tl_DVhKCwuZq20K7D5vW-76" value="name" style="text;strokeColor=none;fillColor=none;align=left;verticalAlign=top;spacingLeft=4;spacingRight=4;overflow=hidden;rotatable=0;points=[[0,0.5],[1,0.5]];portConstraint=eastwest;" parent="tl_DVhKCwuZq20K7D5vW-68" vertex="1">
          <mxGeometry y="26" width="140" height="26" as="geometry" />
        </mxCell>
        <mxCell id="tl_DVhKCwuZq20K7D5vW-69" value="data" style="text;strokeColor=none;fillColor=none;align=left;verticalAlign=top;spacingLeft=4;spacingRight=4;overflow=hidden;rotatable=0;points=[[0,0.5],[1,0.5]];portConstraint=eastwest;" parent="tl_DVhKCwuZq20K7D5vW-68" vertex="1">
          <mxGeometry y="52" width="140" height="26" as="geometry" />
        </mxCell>
        <mxCell id="tl_DVhKCwuZq20K7D5vW-70" value="dataType" style="text;strokeColor=none;fillColor=none;align=left;verticalAlign=top;spacingLeft=4;spacingRight=4;overflow=hidden;rotatable=0;points=[[0,0.5],[1,0.5]];portConstraint=eastwest;" parent="tl_DVhKCwuZq20K7D5vW-68" vertex="1">
          <mxGeometry y="78" width="140" height="26" as="geometry" />
        </mxCell>
        <mxCell id="tl_DVhKCwuZq20K7D5vW-72" style="edgeStyle=orthogonalEdgeStyle;rounded=0;orthogonalLoop=1;jettySize=auto;html=1;entryX=0.5;entryY=1;entryDx=0;entryDy=0;endArrow=none;endFill=0;" parent="1" source="tl_DVhKCwuZq20K7D5vW-65" target="tl_DVhKCwuZq20K7D5vW-37" edge="1">
          <mxGeometry relative="1" as="geometry" />
        </mxCell>
        <mxCell id="tl_DVhKCwuZq20K7D5vW-77" value="1" style="edgeLabel;html=1;align=center;verticalAlign=middle;resizable=0;points=[];" parent="tl_DVhKCwuZq20K7D5vW-72" vertex="1" connectable="0">
          <mxGeometry x="0.9226" y="-2" relative="1" as="geometry">
            <mxPoint x="6" as="offset" />
          </mxGeometry>
        </mxCell>
        <mxCell id="tl_DVhKCwuZq20K7D5vW-80" value="*" style="edgeLabel;html=1;align=center;verticalAlign=middle;resizable=0;points=[];" parent="tl_DVhKCwuZq20K7D5vW-72" vertex="1" connectable="0">
          <mxGeometry x="-0.8215" y="-1" relative="1" as="geometry">
            <mxPoint y="-14" as="offset" />
          </mxGeometry>
        </mxCell>
        <mxCell id="tl_DVhKCwuZq20K7D5vW-74" style="edgeStyle=orthogonalEdgeStyle;rounded=0;orthogonalLoop=1;jettySize=auto;html=1;entryX=1;entryY=0.5;entryDx=0;entryDy=0;endArrow=none;endFill=0;" parent="1" source="tl_DVhKCwuZq20K7D5vW-54" target="tl_DVhKCwuZq20K7D5vW-62" edge="1">
          <mxGeometry relative="1" as="geometry" />
        </mxCell>
        <mxCell id="tl_DVhKCwuZq20K7D5vW-81" value="1" style="edgeLabel;html=1;align=center;verticalAlign=middle;resizable=0;points=[];" parent="tl_DVhKCwuZq20K7D5vW-74" vertex="1" connectable="0">
          <mxGeometry x="-0.8396" relative="1" as="geometry">
            <mxPoint y="-10" as="offset" />
          </mxGeometry>
        </mxCell>
        <mxCell id="tl_DVhKCwuZq20K7D5vW-82" value="*" style="edgeLabel;html=1;align=center;verticalAlign=middle;resizable=0;points=[];" parent="tl_DVhKCwuZq20K7D5vW-74" vertex="1" connectable="0">
          <mxGeometry x="0.6776" y="-1" relative="1" as="geometry">
            <mxPoint x="-15" y="-8" as="offset" />
          </mxGeometry>
        </mxCell>
        <mxCell id="urGP4aQNx4Tb6P65iN4q-3" style="edgeStyle=orthogonalEdgeStyle;rounded=0;orthogonalLoop=1;jettySize=auto;html=1;exitX=1;exitY=0.5;exitDx=0;exitDy=0;entryX=1;entryY=0.5;entryDx=0;entryDy=0;endArrow=diamond;endFill=1;startArrow=none;startFill=0;" edge="1" parent="1" source="tl_DVhKCwuZq20K7D5vW-76" target="tl_DVhKCwuZq20K7D5vW-12">
          <mxGeometry relative="1" as="geometry" />
        </mxCell>
        <mxCell id="urGP4aQNx4Tb6P65iN4q-4" value="0..1" style="edgeLabel;html=1;align=center;verticalAlign=middle;resizable=0;points=[];" vertex="1" connectable="0" parent="urGP4aQNx4Tb6P65iN4q-3">
          <mxGeometry x="0.6255" y="-2" relative="1" as="geometry">
            <mxPoint x="-126" y="15" as="offset" />
          </mxGeometry>
        </mxCell>
        <mxCell id="urGP4aQNx4Tb6P65iN4q-5" value="0..1" style="edgeLabel;html=1;align=center;verticalAlign=middle;resizable=0;points=[];" vertex="1" connectable="0" parent="1">
          <mxGeometry x="710" y="525" as="geometry">
            <mxPoint x="-6" y="1" as="offset" />
          </mxGeometry>
        </mxCell>
      </root>
    </mxGraphModel>
  </diagram>
</mxfile>
